<svg xmlns="http://www.w3.org/2000/svg" width="70.56mm" height="85.36mm" viewBox="0 0 200 241.97">
  <g id="a9eb3362-3298-4899-81c4-94e2b126fc5a" data-name="レイヤー 2">
    <g id="f87df6c9-b62b-4f8e-812d-00f4d113c90f" data-name="レイヤー 1">
      <g>
        <rect x="88.08" y="88.89" width="23.82" height="6.38" style="fill: #1a2b53"/>
        <rect x="123.8" y="115.9" width="17.44" height="17.43" transform="translate(-41.64 177.14) rotate(-60.02)" style="fill: #1a2b53"/>
        <polygon points="79.36 127.81 70.64 112.7 55.54 121.42 64.26 136.52 79.36 127.81" style="fill: #1a2b53"/>
        <rect x="101.22" y="130.36" width="21.35" height="12.33" transform="translate(-48.95 209.24) rotate(-74.99)" style="fill: #1a2b53"/>
        <rect x="81.9" y="125.85" width="12.34" height="21.35" transform="translate(-32.35 27.47) rotate(-15.01)" style="fill: #1a2b53"/>
        <polygon points="108.71 172.25 120.6 151.63 115.08 148.44 103.17 169.07 108.71 172.25" style="fill: #1a2b53"/>
        <polygon points="96.8 169.07 84.88 148.44 79.35 151.63 91.26 172.26 96.8 169.07" style="fill: #1a2b53"/>
        <rect x="147.63" y="44.44" width="17.44" height="17.44" transform="translate(-5.64 85.26) rotate(-29.99)" style="fill: #1a2b53"/>
        <polygon points="153.16 106.33 168.26 115.04 159.53 130.14 144.44 121.43 153.16 106.33" style="fill: #1a2b53"/>
        <rect x="185.69" y="73.79" width="6.38" height="23.82" style="fill: #1a2b53"/>
        <rect x="156.35" y="76.98" width="17.43" height="17.44" style="fill: #1a2b53"/>
        <rect x="34.91" y="44.44" width="17.44" height="17.44" transform="translate(-24.22 64.38) rotate(-60.01)" style="fill: #1a2b53"/>
        <rect x="34.91" y="109.51" width="17.43" height="17.44" transform="translate(-53.25 37.63) rotate(-29.99)" style="fill: #1a2b53"/>
        <rect x="7.9" y="73.79" width="6.38" height="23.82" style="fill: #1a2b53"/>
        <rect x="26.19" y="76.98" width="17.43" height="17.44" style="fill: #1a2b53"/>
        <rect x="141.24" y="-3.19" width="6.38" height="23.82" transform="translate(64.67 129.44) rotate(-60)" style="fill: #1a2b53"/>
        <rect x="43.63" y="5.53" width="23.81" height="6.38" transform="matrix(0.87, -0.5, 0.5, 0.87, 3.08, 28.94)" style="fill: #1a2b53"/>
        <rect x="121.85" y="142.27" width="21.36" height="12.33" transform="translate(-66.14 137.18) rotate(-45)" style="fill: #1a2b53"/>
        <polygon points="111.89 177.79 132.52 165.87 129.33 160.34 108.69 172.25 111.89 177.79" style="fill: #1a2b53"/>
        <polygon points="111.9 95.27 132.52 100.8 129.34 112.71 108.7 107.18 111.9 95.27" style="fill: #1a2b53"/>
        <rect x="91.26" y="107.18" width="17.45" height="17.43" style="fill: #1a2b53"/>
        <rect x="68.69" y="97.83" width="21.36" height="12.33" transform="translate(-24.2 24.07) rotate(-14.99)" style="fill: #1a2b53"/>
        <rect x="96.79" y="145.24" width="6.38" height="23.83" style="fill: #1a2b53"/>
        <rect x="61.29" y="137.76" width="12.33" height="21.36" transform="translate(-85.19 91.14) rotate(-44.99)" style="fill: #1a2b53"/>
        <polygon points="91.27 172.26 70.64 160.34 67.45 165.88 88.08 177.79 91.27 172.26" style="fill: #1a2b53"/>
        <polygon points="168.25 32.54 153.15 17.43 144.42 26.15 159.53 41.25 168.25 32.54" style="fill: #1a2b53"/>
        <rect x="173.78" y="29.34" width="6.38" height="23.82" transform="translate(3.08 93.99) rotate(-29.99)" style="fill: #1a2b53"/>
        <rect x="170.81" y="54.39" width="12.33" height="21.35" transform="translate(-10.82 48.07) rotate(-15.01)" style="fill: #1a2b53"/>
        <polygon points="132.53 70.6 153.15 65.07 156.35 76.98 135.72 82.51 132.53 70.6" style="fill: #1a2b53"/>
        <rect x="166.3" y="100.16" width="21.35" height="12.33" transform="translate(28.43 249.71) rotate(-74.99)" style="fill: #1a2b53"/>
        <polygon points="173.78 142.05 185.69 121.43 180.16 118.23 168.25 138.86 173.78 142.05" style="fill: #1a2b53"/>
        <rect x="138.27" y="86.93" width="12.33" height="21.36" transform="translate(12.78 211.86) rotate(-75)" style="fill: #1a2b53"/>
        <rect x="111.9" y="82.51" width="23.81" height="6.38" style="fill: #1a2b53"/>
        <rect x="145.67" y="135.89" width="21.36" height="12.33" transform="translate(-54.65 152.17) rotate(-45)" style="fill: #1a2b53"/>
        <rect x="132.52" y="159.49" width="23.82" height="6.38" transform="translate(-61.98 93.99) rotate(-29.99)" style="fill: #1a2b53"/>
        <rect x="32.96" y="23.18" width="21.36" height="12.33" transform="translate(-7.97 39.45) rotate(-45.01)" style="fill: #1a2b53"/>
        <rect x="11.1" y="38.06" width="23.82" height="6.38" transform="translate(-24.22 40.55) rotate(-60)" style="fill: #1a2b53"/>
        <rect x="12.33" y="58.9" width="21.35" height="12.33" transform="translate(-45.8 70.44) rotate(-74.99)" style="fill: #1a2b53"/>
        <rect x="49.38" y="63.11" width="12.33" height="21.35" transform="translate(-30.11 108.33) rotate(-74.99)" style="fill: #1a2b53"/>
        <rect x="16.84" y="95.65" width="12.33" height="21.35" transform="translate(-26.75 9.59) rotate(-15.01)" style="fill: #1a2b53"/>
        <polygon points="26.2 142.05 14.29 121.43 19.82 118.23 31.73 138.86 26.2 142.05" style="fill: #1a2b53"/>
        <rect x="44.86" y="91.44" width="21.35" height="12.33" transform="translate(-23.37 17.7) rotate(-15)" style="fill: #1a2b53"/>
        <rect x="64.26" y="82.51" width="23.82" height="6.38" style="fill: #1a2b53"/>
        <polygon points="46.82 153.96 31.71 138.86 40.44 130.14 55.53 145.25 46.82 153.96" style="fill: #1a2b53"/>
        <rect x="52.35" y="150.77" width="6.38" height="23.82" transform="matrix(0.5, -0.87, 0.87, 0.5, -113.11, 129.43)" style="fill: #1a2b53"/>
        <path d="M26.55,241.87H24.67V229.62H29a3.76,3.76,0,1,1,.23,7.51H26.55Zm0-6.58h2.54A1.86,1.86,0,0,0,31,233.37a1.82,1.82,0,0,0-2-1.91h-2.5Z" style="fill: #1a2b53"/>
        <path d="M97.79,241.87H95.91V229.62h4.29a3.76,3.76,0,1,1,.23,7.51H97.79Zm0-6.58h2.54a1.85,1.85,0,0,0,1.93-1.92,1.82,1.82,0,0,0-2-1.91h-2.5Z" style="fill: #1a2b53"/>
        <path d="M53,241.87H50.74l-2.47-5.18H46.13v5.18H44.25V229.62h4.62c3.33,0,3.63,2.38,3.63,3.45a3.12,3.12,0,0,1-2.31,3.41ZM46.13,235h2.63a1.77,1.77,0,0,0,2-1.89c0-.61-.19-1.7-1.85-1.7H46.13Z" style="fill: #1a2b53"/>
        <polygon points="73.49 241.87 65.91 241.87 65.91 229.62 67.79 229.62 67.79 240.14 73.49 240.14 73.49 241.87" style="fill: #1a2b53"/>
        <polygon points="77.92 241.87 76.09 241.87 76.09 236.83 72.53 229.62 74.52 229.62 77.01 234.59 79.49 229.62 81.49 229.62 77.92 236.83 77.92 241.87" style="fill: #1a2b53"/>
        <rect x="106.17" y="229.62" width="1.88" height="12.25" style="fill: #1a2b53"/>
        <path d="M114.35,242a3.9,3.9,0,0,1-4.1-3.4,50.1,50.1,0,0,1,0-5.66,4.19,4.19,0,0,1,8.27.26h-2a2,2,0,0,0-2.17-1.87,2.21,2.21,0,0,0-2.22,2,15.81,15.81,0,0,0-.09,2.43,15.43,15.43,0,0,0,.09,2.41,2.22,2.22,0,0,0,4.38.22h2a4.14,4.14,0,0,1-4.14,3.59" style="fill: #1a2b53"/>
        <path d="M128.6,242a3.87,3.87,0,0,1-4.11-3.4,26.9,26.9,0,0,1-.08-2.82,23.75,23.75,0,0,1,.08-2.84,3.94,3.94,0,0,1,4.1-3.39,3.82,3.82,0,0,1,4.16,3.64l-2,0a2,2,0,0,0-2.18-1.9,2.26,2.26,0,0,0-2.21,2,17.69,17.69,0,0,0-.08,2.43,17.35,17.35,0,0,0,.08,2.41,2.2,2.2,0,0,0,2.22,2c2.49,0,2.34-2.52,2.34-3.22h-2.38v-1.83h4.26v2.29c0,1.85-.9,4.59-4.21,4.59" style="fill: #1a2b53"/>
        <polygon points="165.44 241.87 157.88 241.87 157.88 229.62 165.44 229.62 165.44 231.36 159.75 231.36 159.75 234.76 164.61 234.76 164.61 236.5 159.75 236.5 159.75 240.14 165.44 240.14 165.44 241.87" style="fill: #1a2b53"/>
        <path d="M167.77,238.89a5.28,5.28,0,0,0,3.35,1.29,2,2,0,0,0,2.26-1.78c0-.88-.46-1.42-1.59-1.66l-1.77-.38a3.21,3.21,0,0,1-2.88-3.3c0-1.06.5-3.55,3.92-3.55a6.26,6.26,0,0,1,3.79,1.34l-.9,1.41a4.5,4.5,0,0,0-3-1.06,1.75,1.75,0,0,0-1.92,1.75,1.86,1.86,0,0,0,1.63,1.75L172,235c1,.23,3.34.61,3.34,3.37,0,2.33-1.78,3.59-4.36,3.59a6.25,6.25,0,0,1-4.29-1.63Z" style="fill: #1a2b53"/>
        <path d="M38.43,229.61H36.94l-4.29,12.26h1.93l1-3h4.13l1,3h1.93Zm-2.3,7.52,1.53-4.52h.05l1.54,4.52Z" style="fill: #1a2b53"/>
        <path d="M60,229.61h-1.5l-4.29,12.26h1.94l1-3h4.13l1.05,3h1.93Zm-2.3,7.52,1.52-4.52h.06l1.53,4.52Z" style="fill: #1a2b53"/>
        <polygon points="91.61 229.62 88.33 237.25 88.25 237.25 84.91 229.62 83.15 229.62 83.15 241.87 85.03 241.87 85.03 234.55 85.11 234.55 87.48 240.05 89.03 240.05 91.4 234.55 91.49 234.55 91.49 241.87 93.37 241.87 93.37 229.62 91.61 229.62" style="fill: #1a2b53"/>
        <polygon points="153.82 229.62 150.56 237.25 150.47 237.25 147.13 229.62 145.37 229.62 145.37 241.87 147.25 241.87 147.25 234.55 147.33 234.55 149.71 240.05 151.25 240.05 153.63 234.55 153.71 234.55 153.71 241.87 155.59 241.87 155.59 229.62 153.82 229.62" style="fill: #1a2b53"/>
        <path d="M139.57,229.61h-1.49l-4.29,12.26h1.94l1-3h4.13l1,3h1.93Zm-2.29,7.52,1.53-4.52h.05l1.53,4.52Z" style="fill: #1a2b53"/>
        <polygon points="10.88 221.41 6.43 221.41 6.43 197.96 0 197.96 0 193.85 17.31 193.85 17.31 197.96 10.88 197.96 10.88 221.41" style="fill: #1a2b53"/>
        <polygon points="66.69 221.41 61.37 221.41 54.77 209.53 52.29 213 52.29 221.41 47.85 221.41 47.85 193.85 52.29 193.85 52.29 206.25 52.41 206.28 60.81 193.85 65.85 193.85 57.78 205.8 66.69 221.41" style="fill: #1a2b53"/>
        <polygon points="81.58 221.41 77.14 221.41 77.14 209.56 69.85 193.85 74.41 193.85 79.3 204.64 79.42 204.64 84.31 193.85 88.87 193.85 81.58 209.56 81.58 221.41" style="fill: #1a2b53"/>
        <path d="M136.34,221.41H120.83v-3.95l0-.07,10.27-13.26a4,4,0,0,0,.87-2.57,3.5,3.5,0,0,0-3.38-3.6,3.33,3.33,0,0,0-2.46,1,4.45,4.45,0,0,0-1.07,3.09v.22h-4.28V202a9.19,9.19,0,0,1,2.26-6.1,7.21,7.21,0,0,1,5.31-2.26,7.66,7.66,0,0,1,5.69,2.24,7.9,7.9,0,0,1,2.18,5.75,8.07,8.07,0,0,1-1.92,5.27L126.58,217l0,.12h9.71Z" style="fill: #1a2b53"/>
        <path d="M179.23,221.41h-15.5v-3.95l.05-.07L174,204.13a3.91,3.91,0,0,0,.88-2.57,3.5,3.5,0,0,0-3.38-3.6,3.37,3.37,0,0,0-2.47,1A4.41,4.41,0,0,0,168,202v.22h-4.28V202a9.19,9.19,0,0,1,2.26-6.1,7.2,7.2,0,0,1,5.31-2.26,7.69,7.69,0,0,1,5.69,2.24,7.9,7.9,0,0,1,2.18,5.75,8.07,8.07,0,0,1-1.92,5.27L169.47,217l.06.12h9.7Z" style="fill: #1a2b53"/>
        <path d="M100.76,221.63c-5,0-8.66-3.51-8.66-8.37V201.94c0-4.89,3.56-8.31,8.66-8.31s8.65,3.42,8.65,8.31v11.32c0,4.86-3.63,8.37-8.65,8.37m0-23.67a4.36,4.36,0,0,0-4.43,4.58v10c0,2.87,1.78,4.8,4.43,4.8s4.44-1.93,4.44-4.8v-10a4.37,4.37,0,0,0-4.44-4.58" style="fill: #1a2b53"/>
        <path d="M31.17,221.63c-5,0-8.66-3.51-8.66-8.37V201.94c0-4.89,3.56-8.31,8.66-8.31s8.66,3.42,8.66,8.31v11.32c0,4.86-3.65,8.37-8.66,8.37m0-23.67a4.36,4.36,0,0,0-4.43,4.58v10c0,2.87,1.78,4.8,4.43,4.8s4.43-1.93,4.43-4.8v-10A4.36,4.36,0,0,0,31.17,198" style="fill: #1a2b53"/>
        <path d="M150.36,221.63c-2.85,0-7.67-1.68-7.67-8v-12c0-4.8,3.08-8,7.67-8s7.68,3.21,7.68,8v12c0,6.34-4.83,8-7.68,8m0-23.67c-2.85,0-3.45,2.19-3.45,4v11.28c0,2.71,1.13,4,3.45,4s3.45-1.32,3.45-4V202c0-1.84-.59-4-3.45-4" style="fill: #1a2b53"/>
        <path d="M192.33,221.63c-2.86,0-7.68-1.68-7.68-8v-12c0-4.8,3.08-8,7.68-8s7.67,3.21,7.67,8v12c0,6.34-4.82,8-7.67,8m0-23.67c-2.86,0-3.46,2.19-3.46,4v11.28c0,2.71,1.13,4,3.46,4s3.45-1.32,3.45-4V202c0-1.84-.6-4-3.45-4" style="fill: #1a2b53"/>
      </g>
    </g>
  </g>
</svg>
